<mxfile host="app.diagrams.net" modified="2022-11-20T04:56:30.746Z" agent="5.0 (Windows NT 10.0; Win64; x64) AppleWebKit/537.36 (KHTML, like Gecko) Chrome/107.0.0.0 Safari/537.36" etag="SlRgCNx-OnZmlKJKT0iz" version="20.5.3" type="github">
  <diagram id="fnLHk5_FQdHGoSxvLHbr" name="페이지-1">
    <mxGraphModel dx="5866" dy="1374" grid="1" gridSize="10" guides="1" tooltips="1" connect="1" arrows="1" fold="1" page="1" pageScale="1" pageWidth="3300" pageHeight="4681" math="0" shadow="0">
      <root>
        <mxCell id="0" />
        <mxCell id="1" parent="0" />
        <mxCell id="VsHdTwIQCPGBIgWfEWJq-67" value="" style="shape=folder;fontStyle=1;spacingTop=10;tabWidth=95;tabHeight=30;tabPosition=left;html=1;" vertex="1" parent="1">
          <mxGeometry x="-1640" y="820" width="330" height="220" as="geometry" />
        </mxCell>
        <mxCell id="VsHdTwIQCPGBIgWfEWJq-58" value="" style="shape=folder;fontStyle=1;spacingTop=10;tabWidth=140;tabHeight=34;tabPosition=left;html=1;" vertex="1" parent="1">
          <mxGeometry x="-1630" y="160" width="330" height="636" as="geometry" />
        </mxCell>
        <mxCell id="VsHdTwIQCPGBIgWfEWJq-57" value="" style="shape=folder;fontStyle=1;spacingTop=10;tabWidth=110;tabHeight=26;tabPosition=left;html=1;" vertex="1" parent="1">
          <mxGeometry x="-1130" y="166" width="560" height="308" as="geometry" />
        </mxCell>
        <mxCell id="VsHdTwIQCPGBIgWfEWJq-56" value="" style="shape=folder;fontStyle=1;spacingTop=10;tabWidth=90;tabHeight=28;tabPosition=left;html=1;" vertex="1" parent="1">
          <mxGeometry x="-1130" y="488" width="560" height="450" as="geometry" />
        </mxCell>
        <mxCell id="VsHdTwIQCPGBIgWfEWJq-2" value="관찰일지 인터페이스" style="swimlane;fontStyle=1;align=center;verticalAlign=top;childLayout=stackLayout;horizontal=1;startSize=26;horizontalStack=0;resizeParent=1;resizeParentMax=0;resizeLast=0;collapsible=1;marginBottom=0;" vertex="1" parent="1">
          <mxGeometry x="-1570" y="602" width="215" height="150" as="geometry" />
        </mxCell>
        <mxCell id="VsHdTwIQCPGBIgWfEWJq-3" value="+ date: datetime&#xa;" style="text;strokeColor=none;fillColor=none;align=left;verticalAlign=top;spacingLeft=4;spacingRight=4;overflow=hidden;rotatable=0;points=[[0,0.5],[1,0.5]];portConstraint=eastwest;" vertex="1" parent="VsHdTwIQCPGBIgWfEWJq-2">
          <mxGeometry y="26" width="215" height="34" as="geometry" />
        </mxCell>
        <mxCell id="VsHdTwIQCPGBIgWfEWJq-4" value="" style="line;strokeWidth=1;fillColor=none;align=left;verticalAlign=middle;spacingTop=-1;spacingLeft=3;spacingRight=3;rotatable=0;labelPosition=right;points=[];portConstraint=eastwest;strokeColor=inherit;" vertex="1" parent="VsHdTwIQCPGBIgWfEWJq-2">
          <mxGeometry y="60" width="215" height="8" as="geometry" />
        </mxCell>
        <mxCell id="VsHdTwIQCPGBIgWfEWJq-5" value="+ make_graph(int[ ] daily_data ) :&#xa;+ request_data(datetime datetime) : &#xa;                                int [] daily_data&#xa;+ request_picture(datetime datetime):&#xa;                                uri" style="text;strokeColor=none;fillColor=none;align=left;verticalAlign=top;spacingLeft=4;spacingRight=4;overflow=hidden;rotatable=0;points=[[0,0.5],[1,0.5]];portConstraint=eastwest;" vertex="1" parent="VsHdTwIQCPGBIgWfEWJq-2">
          <mxGeometry y="68" width="215" height="82" as="geometry" />
        </mxCell>
        <mxCell id="VsHdTwIQCPGBIgWfEWJq-6" value="" style="endArrow=none;endFill=0;endSize=12;html=1;rounded=0;exitX=1;exitY=0.5;exitDx=0;exitDy=0;" edge="1" parent="1" source="VsHdTwIQCPGBIgWfEWJq-24" target="VsHdTwIQCPGBIgWfEWJq-25">
          <mxGeometry width="160" relative="1" as="geometry">
            <mxPoint x="-1310" y="413" as="sourcePoint" />
            <mxPoint x="-1185" y="292" as="targetPoint" />
          </mxGeometry>
        </mxCell>
        <mxCell id="VsHdTwIQCPGBIgWfEWJq-7" value="Device_ctrl_pump" style="swimlane;fontStyle=1;align=center;verticalAlign=top;childLayout=stackLayout;horizontal=1;startSize=26;horizontalStack=0;resizeParent=1;resizeParentMax=0;resizeLast=0;collapsible=1;marginBottom=0;strokeColor=default;" vertex="1" parent="1">
          <mxGeometry x="-795" y="222" width="175" height="70" as="geometry" />
        </mxCell>
        <mxCell id="VsHdTwIQCPGBIgWfEWJq-8" value="" style="line;strokeWidth=1;fillColor=none;align=left;verticalAlign=middle;spacingTop=-1;spacingLeft=3;spacingRight=3;rotatable=0;labelPosition=right;points=[];portConstraint=eastwest;strokeColor=inherit;" vertex="1" parent="VsHdTwIQCPGBIgWfEWJq-7">
          <mxGeometry y="26" width="175" height="8" as="geometry" />
        </mxCell>
        <mxCell id="VsHdTwIQCPGBIgWfEWJq-9" value="+ pump_onoff(boolean onoff) :&#xa;                        boolean realon " style="text;strokeColor=none;fillColor=none;align=left;verticalAlign=top;spacingLeft=4;spacingRight=4;overflow=hidden;rotatable=0;points=[[0,0.5],[1,0.5]];portConstraint=eastwest;" vertex="1" parent="VsHdTwIQCPGBIgWfEWJq-7">
          <mxGeometry y="34" width="175" height="36" as="geometry" />
        </mxCell>
        <mxCell id="VsHdTwIQCPGBIgWfEWJq-10" style="edgeStyle=orthogonalEdgeStyle;rounded=0;orthogonalLoop=1;jettySize=auto;html=1;exitX=0;exitY=0.5;exitDx=0;exitDy=0;endArrow=block;endFill=0;" edge="1" parent="1" source="VsHdTwIQCPGBIgWfEWJq-11">
          <mxGeometry relative="1" as="geometry">
            <mxPoint x="-924.9999999999998" y="313.9999999999999" as="targetPoint" />
            <Array as="points">
              <mxPoint x="-860" y="345" />
              <mxPoint x="-860" y="314" />
            </Array>
          </mxGeometry>
        </mxCell>
        <mxCell id="VsHdTwIQCPGBIgWfEWJq-11" value="Device_ctrl_fan" style="swimlane;fontStyle=1;align=center;verticalAlign=top;childLayout=stackLayout;horizontal=1;startSize=26;horizontalStack=0;resizeParent=1;resizeParentMax=0;resizeLast=0;collapsible=1;marginBottom=0;strokeColor=default;" vertex="1" parent="1">
          <mxGeometry x="-795" y="315" width="175" height="70" as="geometry" />
        </mxCell>
        <mxCell id="VsHdTwIQCPGBIgWfEWJq-12" value="" style="line;strokeWidth=1;fillColor=none;align=left;verticalAlign=middle;spacingTop=-1;spacingLeft=3;spacingRight=3;rotatable=0;labelPosition=right;points=[];portConstraint=eastwest;strokeColor=inherit;" vertex="1" parent="VsHdTwIQCPGBIgWfEWJq-11">
          <mxGeometry y="26" width="175" height="8" as="geometry" />
        </mxCell>
        <mxCell id="VsHdTwIQCPGBIgWfEWJq-13" value="+ fan_onoff(boolean onoff):&#xa;                        boolean realon" style="text;strokeColor=none;fillColor=none;align=left;verticalAlign=top;spacingLeft=4;spacingRight=4;overflow=hidden;rotatable=0;points=[[0,0.5],[1,0.5]];portConstraint=eastwest;" vertex="1" parent="VsHdTwIQCPGBIgWfEWJq-11">
          <mxGeometry y="34" width="175" height="36" as="geometry" />
        </mxCell>
        <mxCell id="VsHdTwIQCPGBIgWfEWJq-14" value="Device_ctrl_led" style="swimlane;fontStyle=1;align=center;verticalAlign=top;childLayout=stackLayout;horizontal=1;startSize=26;horizontalStack=0;resizeParent=1;resizeParentMax=0;resizeLast=0;collapsible=1;marginBottom=0;strokeColor=default;" vertex="1" parent="1">
          <mxGeometry x="-795" y="392" width="175" height="70" as="geometry" />
        </mxCell>
        <mxCell id="VsHdTwIQCPGBIgWfEWJq-15" value="" style="line;strokeWidth=1;fillColor=none;align=left;verticalAlign=middle;spacingTop=-1;spacingLeft=3;spacingRight=3;rotatable=0;labelPosition=right;points=[];portConstraint=eastwest;strokeColor=inherit;" vertex="1" parent="VsHdTwIQCPGBIgWfEWJq-14">
          <mxGeometry y="26" width="175" height="8" as="geometry" />
        </mxCell>
        <mxCell id="VsHdTwIQCPGBIgWfEWJq-16" value="+ led_onoff(boolean onoff):&#xa;                        boolean realon" style="text;strokeColor=none;fillColor=none;align=left;verticalAlign=top;spacingLeft=4;spacingRight=4;overflow=hidden;rotatable=0;points=[[0,0.5],[1,0.5]];portConstraint=eastwest;" vertex="1" parent="VsHdTwIQCPGBIgWfEWJq-14">
          <mxGeometry y="34" width="175" height="36" as="geometry" />
        </mxCell>
        <mxCell id="VsHdTwIQCPGBIgWfEWJq-17" style="edgeStyle=orthogonalEdgeStyle;rounded=0;orthogonalLoop=1;jettySize=auto;html=1;exitX=0;exitY=0.5;exitDx=0;exitDy=0;entryX=1;entryY=0.5;entryDx=0;entryDy=0;endArrow=block;endFill=0;" edge="1" parent="1" source="VsHdTwIQCPGBIgWfEWJq-16">
          <mxGeometry relative="1" as="geometry">
            <mxPoint x="-924.9999999999998" y="313.9999999999999" as="targetPoint" />
            <Array as="points">
              <mxPoint x="-860" y="439" />
              <mxPoint x="-860" y="314" />
            </Array>
          </mxGeometry>
        </mxCell>
        <mxCell id="VsHdTwIQCPGBIgWfEWJq-18" style="edgeStyle=orthogonalEdgeStyle;rounded=0;orthogonalLoop=1;jettySize=auto;html=1;exitX=0;exitY=0.5;exitDx=0;exitDy=0;endArrow=block;endFill=0;" edge="1" parent="1" source="VsHdTwIQCPGBIgWfEWJq-9">
          <mxGeometry relative="1" as="geometry">
            <mxPoint x="-924.9999999999998" y="313.9999999999999" as="targetPoint" />
            <Array as="points">
              <mxPoint x="-860" y="269" />
              <mxPoint x="-860" y="314" />
            </Array>
          </mxGeometry>
        </mxCell>
        <mxCell id="VsHdTwIQCPGBIgWfEWJq-19" style="edgeStyle=orthogonalEdgeStyle;rounded=0;orthogonalLoop=1;jettySize=auto;html=1;exitX=0;exitY=0.5;exitDx=0;exitDy=0;endArrow=classic;endFill=1;entryX=1;entryY=0.5;entryDx=0;entryDy=0;" edge="1" parent="1" source="VsHdTwIQCPGBIgWfEWJq-46" target="VsHdTwIQCPGBIgWfEWJq-3">
          <mxGeometry relative="1" as="geometry">
            <mxPoint x="-1105" y="669" as="targetPoint" />
            <mxPoint x="-1105" y="602.9999999999999" as="sourcePoint" />
            <Array as="points">
              <mxPoint x="-1120" y="587" />
              <mxPoint x="-1120" y="645" />
            </Array>
          </mxGeometry>
        </mxCell>
        <mxCell id="VsHdTwIQCPGBIgWfEWJq-20" style="edgeStyle=orthogonalEdgeStyle;rounded=0;orthogonalLoop=1;jettySize=auto;html=1;exitX=-0.002;exitY=0.259;exitDx=0;exitDy=0;endArrow=block;endFill=0;exitPerimeter=0;entryX=1;entryY=0.5;entryDx=0;entryDy=0;" edge="1" parent="1" source="VsHdTwIQCPGBIgWfEWJq-38" target="VsHdTwIQCPGBIgWfEWJq-46">
          <mxGeometry relative="1" as="geometry">
            <mxPoint x="-775" y="594" as="sourcePoint" />
            <mxPoint x="-905" y="608.9999999999999" as="targetPoint" />
            <Array as="points">
              <mxPoint x="-830" y="687" />
              <mxPoint x="-830" y="623" />
            </Array>
          </mxGeometry>
        </mxCell>
        <mxCell id="VsHdTwIQCPGBIgWfEWJq-21" style="edgeStyle=orthogonalEdgeStyle;rounded=0;orthogonalLoop=1;jettySize=auto;html=1;endArrow=block;endFill=0;entryX=1;entryY=0.5;entryDx=0;entryDy=0;" edge="1" parent="1" source="VsHdTwIQCPGBIgWfEWJq-41" target="VsHdTwIQCPGBIgWfEWJq-46">
          <mxGeometry relative="1" as="geometry">
            <mxPoint x="-775" y="674" as="sourcePoint" />
            <mxPoint x="-905" y="608.9999999999999" as="targetPoint" />
            <Array as="points" />
          </mxGeometry>
        </mxCell>
        <mxCell id="VsHdTwIQCPGBIgWfEWJq-22" value="수동조절 인터페이스" style="swimlane;fontStyle=1;align=center;verticalAlign=top;childLayout=stackLayout;horizontal=1;startSize=26;horizontalStack=0;resizeParent=1;resizeParentMax=0;resizeLast=0;collapsible=1;marginBottom=0;" vertex="1" parent="1">
          <mxGeometry x="-1570" y="240" width="160" height="130" as="geometry" />
        </mxCell>
        <mxCell id="VsHdTwIQCPGBIgWfEWJq-23" value="" style="line;strokeWidth=1;fillColor=none;align=left;verticalAlign=middle;spacingTop=-1;spacingLeft=3;spacingRight=3;rotatable=0;labelPosition=right;points=[];portConstraint=eastwest;strokeColor=inherit;" vertex="1" parent="VsHdTwIQCPGBIgWfEWJq-22">
          <mxGeometry y="26" width="160" height="8" as="geometry" />
        </mxCell>
        <mxCell id="VsHdTwIQCPGBIgWfEWJq-24" value="+ send_data(String path, &#xa;                    boolean onoff):&#xa;+ send_mode(String path,&#xa;                    int mode)&#xa;+ get_realon(String path) :&#xa;                    boolean onoff" style="text;strokeColor=none;fillColor=none;align=left;verticalAlign=top;spacingLeft=4;spacingRight=4;overflow=hidden;rotatable=0;points=[[0,0.5],[1,0.5]];portConstraint=eastwest;" vertex="1" parent="VsHdTwIQCPGBIgWfEWJq-22">
          <mxGeometry y="34" width="160" height="96" as="geometry" />
        </mxCell>
        <mxCell id="VsHdTwIQCPGBIgWfEWJq-25" value="Device_ctrl" style="swimlane;fontStyle=1;align=center;verticalAlign=top;childLayout=stackLayout;horizontal=1;startSize=26;horizontalStack=0;resizeParent=1;resizeParentMax=0;resizeLast=0;collapsible=1;marginBottom=0;" vertex="1" parent="1">
          <mxGeometry x="-1100" y="262" width="190" height="190" as="geometry" />
        </mxCell>
        <mxCell id="VsHdTwIQCPGBIgWfEWJq-26" value="- int : mode&#xa;" style="text;strokeColor=none;fillColor=none;align=left;verticalAlign=top;spacingLeft=4;spacingRight=4;overflow=hidden;rotatable=0;points=[[0,0.5],[1,0.5]];portConstraint=eastwest;" vertex="1" parent="VsHdTwIQCPGBIgWfEWJq-25">
          <mxGeometry y="26" width="190" height="24" as="geometry" />
        </mxCell>
        <mxCell id="VsHdTwIQCPGBIgWfEWJq-27" value="" style="line;strokeWidth=1;fillColor=none;align=left;verticalAlign=middle;spacingTop=-1;spacingLeft=3;spacingRight=3;rotatable=0;labelPosition=right;points=[];portConstraint=eastwest;strokeColor=inherit;" vertex="1" parent="VsHdTwIQCPGBIgWfEWJq-25">
          <mxGeometry y="50" width="190" height="8" as="geometry" />
        </mxCell>
        <mxCell id="VsHdTwIQCPGBIgWfEWJq-28" value="+ modecheck(int mode): &#xa;                            boolean&#xa;+retrieve_data(String path):&#xa;                            boolean&#xa;+exception_check(String path):&#xa;                            boolean&#xa;+ send_realon(String path,&#xa;                         boolean onoff)" style="text;strokeColor=none;fillColor=none;align=left;verticalAlign=top;spacingLeft=4;spacingRight=4;overflow=hidden;rotatable=0;points=[[0,0.5],[1,0.5]];portConstraint=eastwest;" vertex="1" parent="VsHdTwIQCPGBIgWfEWJq-25">
          <mxGeometry y="58" width="190" height="132" as="geometry" />
        </mxCell>
        <mxCell id="VsHdTwIQCPGBIgWfEWJq-29" value="자동조절 인터페이스" style="swimlane;fontStyle=1;align=center;verticalAlign=top;childLayout=stackLayout;horizontal=1;startSize=26;horizontalStack=0;resizeParent=1;resizeParentMax=0;resizeLast=0;collapsible=1;marginBottom=0;" vertex="1" parent="1">
          <mxGeometry x="-1570" y="412" width="190" height="136" as="geometry" />
        </mxCell>
        <mxCell id="VsHdTwIQCPGBIgWfEWJq-30" value="" style="line;strokeWidth=1;fillColor=none;align=left;verticalAlign=middle;spacingTop=-1;spacingLeft=3;spacingRight=3;rotatable=0;labelPosition=right;points=[];portConstraint=eastwest;strokeColor=inherit;" vertex="1" parent="VsHdTwIQCPGBIgWfEWJq-29">
          <mxGeometry y="26" width="190" height="8" as="geometry" />
        </mxCell>
        <mxCell id="VsHdTwIQCPGBIgWfEWJq-31" value="+ send_mode(String path,&#xa;                    int mode)&#xa;+ send_user_setting(String path,&#xa;                    int setting):" style="text;strokeColor=none;fillColor=none;align=left;verticalAlign=top;spacingLeft=4;spacingRight=4;overflow=hidden;rotatable=0;points=[[0,0.5],[1,0.5]];portConstraint=eastwest;" vertex="1" parent="VsHdTwIQCPGBIgWfEWJq-29">
          <mxGeometry y="34" width="190" height="102" as="geometry" />
        </mxCell>
        <mxCell id="VsHdTwIQCPGBIgWfEWJq-32" style="edgeStyle=orthogonalEdgeStyle;rounded=0;orthogonalLoop=1;jettySize=auto;html=1;endArrow=block;endFill=0;exitX=0;exitY=0.5;exitDx=0;exitDy=0;entryX=1;entryY=0.5;entryDx=0;entryDy=0;" edge="1" parent="1" source="VsHdTwIQCPGBIgWfEWJq-42" target="VsHdTwIQCPGBIgWfEWJq-46">
          <mxGeometry relative="1" as="geometry">
            <mxPoint x="-775" y="742" as="sourcePoint" />
            <mxPoint x="-905" y="608.9999999999999" as="targetPoint" />
            <Array as="points">
              <mxPoint x="-830" y="846" />
              <mxPoint x="-830" y="623" />
            </Array>
          </mxGeometry>
        </mxCell>
        <mxCell id="VsHdTwIQCPGBIgWfEWJq-33" value="Sensor_temp" style="swimlane;fontStyle=1;align=center;verticalAlign=top;childLayout=stackLayout;horizontal=1;startSize=26;horizontalStack=0;resizeParent=1;resizeParentMax=0;resizeLast=0;collapsible=1;marginBottom=0;" vertex="1" parent="1">
          <mxGeometry x="-775" y="556" width="190" height="60" as="geometry" />
        </mxCell>
        <mxCell id="VsHdTwIQCPGBIgWfEWJq-34" value="" style="line;strokeWidth=1;fillColor=none;align=left;verticalAlign=middle;spacingTop=-1;spacingLeft=3;spacingRight=3;rotatable=0;labelPosition=right;points=[];portConstraint=eastwest;strokeColor=inherit;" vertex="1" parent="VsHdTwIQCPGBIgWfEWJq-33">
          <mxGeometry y="26" width="190" height="8" as="geometry" />
        </mxCell>
        <mxCell id="VsHdTwIQCPGBIgWfEWJq-35" value="+ read_temp(): int temp" style="text;strokeColor=none;fillColor=none;align=left;verticalAlign=top;spacingLeft=4;spacingRight=4;overflow=hidden;rotatable=0;points=[[0,0.5],[1,0.5]];portConstraint=eastwest;" vertex="1" parent="VsHdTwIQCPGBIgWfEWJq-33">
          <mxGeometry y="34" width="190" height="26" as="geometry" />
        </mxCell>
        <mxCell id="VsHdTwIQCPGBIgWfEWJq-36" value="Sensor_humi" style="swimlane;fontStyle=1;align=center;verticalAlign=top;childLayout=stackLayout;horizontal=1;startSize=26;horizontalStack=0;resizeParent=1;resizeParentMax=0;resizeLast=0;collapsible=1;marginBottom=0;" vertex="1" parent="1">
          <mxGeometry x="-775" y="646" width="190" height="60" as="geometry" />
        </mxCell>
        <mxCell id="VsHdTwIQCPGBIgWfEWJq-37" value="" style="line;strokeWidth=1;fillColor=none;align=left;verticalAlign=middle;spacingTop=-1;spacingLeft=3;spacingRight=3;rotatable=0;labelPosition=right;points=[];portConstraint=eastwest;strokeColor=inherit;" vertex="1" parent="VsHdTwIQCPGBIgWfEWJq-36">
          <mxGeometry y="26" width="190" height="8" as="geometry" />
        </mxCell>
        <mxCell id="VsHdTwIQCPGBIgWfEWJq-38" value="+ read_humi(): int humi" style="text;strokeColor=none;fillColor=none;align=left;verticalAlign=top;spacingLeft=4;spacingRight=4;overflow=hidden;rotatable=0;points=[[0,0.5],[1,0.5]];portConstraint=eastwest;" vertex="1" parent="VsHdTwIQCPGBIgWfEWJq-36">
          <mxGeometry y="34" width="190" height="26" as="geometry" />
        </mxCell>
        <mxCell id="VsHdTwIQCPGBIgWfEWJq-39" value="Sensor_soil_humi" style="swimlane;fontStyle=1;align=center;verticalAlign=top;childLayout=stackLayout;horizontal=1;startSize=26;horizontalStack=0;resizeParent=1;resizeParentMax=0;resizeLast=0;collapsible=1;marginBottom=0;" vertex="1" parent="1">
          <mxGeometry x="-775" y="728" width="190" height="60" as="geometry" />
        </mxCell>
        <mxCell id="VsHdTwIQCPGBIgWfEWJq-40" value="" style="line;strokeWidth=1;fillColor=none;align=left;verticalAlign=middle;spacingTop=-1;spacingLeft=3;spacingRight=3;rotatable=0;labelPosition=right;points=[];portConstraint=eastwest;strokeColor=inherit;" vertex="1" parent="VsHdTwIQCPGBIgWfEWJq-39">
          <mxGeometry y="26" width="190" height="8" as="geometry" />
        </mxCell>
        <mxCell id="VsHdTwIQCPGBIgWfEWJq-41" value="+ read_soil_humi(): int soil_humi" style="text;strokeColor=none;fillColor=none;align=left;verticalAlign=top;spacingLeft=4;spacingRight=4;overflow=hidden;rotatable=0;points=[[0,0.5],[1,0.5]];portConstraint=eastwest;" vertex="1" parent="VsHdTwIQCPGBIgWfEWJq-39">
          <mxGeometry y="34" width="190" height="26" as="geometry" />
        </mxCell>
        <mxCell id="VsHdTwIQCPGBIgWfEWJq-42" value="Sensor_light" style="swimlane;fontStyle=1;align=center;verticalAlign=top;childLayout=stackLayout;horizontal=1;startSize=26;horizontalStack=0;resizeParent=1;resizeParentMax=0;resizeLast=0;collapsible=1;marginBottom=0;" vertex="1" parent="1">
          <mxGeometry x="-775" y="816" width="195" height="60" as="geometry" />
        </mxCell>
        <mxCell id="VsHdTwIQCPGBIgWfEWJq-43" value="" style="line;strokeWidth=1;fillColor=none;align=left;verticalAlign=middle;spacingTop=-1;spacingLeft=3;spacingRight=3;rotatable=0;labelPosition=right;points=[];portConstraint=eastwest;strokeColor=inherit;" vertex="1" parent="VsHdTwIQCPGBIgWfEWJq-42">
          <mxGeometry y="26" width="195" height="8" as="geometry" />
        </mxCell>
        <mxCell id="VsHdTwIQCPGBIgWfEWJq-44" value="+ read_light(): int light" style="text;strokeColor=none;fillColor=none;align=left;verticalAlign=top;spacingLeft=4;spacingRight=4;overflow=hidden;rotatable=0;points=[[0,0.5],[1,0.5]];portConstraint=eastwest;" vertex="1" parent="VsHdTwIQCPGBIgWfEWJq-42">
          <mxGeometry y="34" width="195" height="26" as="geometry" />
        </mxCell>
        <mxCell id="VsHdTwIQCPGBIgWfEWJq-45" value="Sensor_data" style="swimlane;fontStyle=1;align=center;verticalAlign=top;childLayout=stackLayout;horizontal=1;startSize=26;horizontalStack=0;resizeParent=1;resizeParentMax=0;resizeLast=0;collapsible=1;marginBottom=0;" vertex="1" parent="1">
          <mxGeometry x="-1100" y="584" width="215" height="220" as="geometry" />
        </mxCell>
        <mxCell id="VsHdTwIQCPGBIgWfEWJq-46" value="+ usersetting: int" style="text;strokeColor=none;fillColor=none;align=left;verticalAlign=top;spacingLeft=4;spacingRight=4;overflow=hidden;rotatable=0;points=[[0,0.5],[1,0.5]];portConstraint=eastwest;" vertex="1" parent="VsHdTwIQCPGBIgWfEWJq-45">
          <mxGeometry y="26" width="215" height="26" as="geometry" />
        </mxCell>
        <mxCell id="VsHdTwIQCPGBIgWfEWJq-47" value="" style="line;strokeWidth=1;fillColor=none;align=left;verticalAlign=middle;spacingTop=-1;spacingLeft=3;spacingRight=3;rotatable=0;labelPosition=right;points=[];portConstraint=eastwest;strokeColor=inherit;" vertex="1" parent="VsHdTwIQCPGBIgWfEWJq-45">
          <mxGeometry y="52" width="215" height="8" as="geometry" />
        </mxCell>
        <mxCell id="VsHdTwIQCPGBIgWfEWJq-48" value="+ push_sensor_data(String path, int data):&#xa;+ get_sensor_data(String path):&#xa;                                   int data&#xa;+ get_user_setting(String path):&#xa;                          int usersetting)&#xa;+ compare_data_with_setting&#xa;            (int data, int usersetting):&#xa;                                boolean onoff&#xa;+ check_time_sensor(datetime time):&#xa;                                 boolean check" style="text;strokeColor=none;fillColor=none;align=left;verticalAlign=top;spacingLeft=4;spacingRight=4;overflow=hidden;rotatable=0;points=[[0,0.5],[1,0.5]];portConstraint=eastwest;" vertex="1" parent="VsHdTwIQCPGBIgWfEWJq-45">
          <mxGeometry y="60" width="215" height="160" as="geometry" />
        </mxCell>
        <mxCell id="VsHdTwIQCPGBIgWfEWJq-49" style="edgeStyle=orthogonalEdgeStyle;rounded=0;orthogonalLoop=1;jettySize=auto;html=1;exitX=0;exitY=0.5;exitDx=0;exitDy=0;endArrow=block;endFill=0;entryX=1;entryY=0.5;entryDx=0;entryDy=0;" edge="1" parent="1" source="VsHdTwIQCPGBIgWfEWJq-33" target="VsHdTwIQCPGBIgWfEWJq-46">
          <mxGeometry relative="1" as="geometry">
            <mxPoint x="-775" y="475" as="sourcePoint" />
            <mxPoint x="-905" y="559.9999999999999" as="targetPoint" />
            <Array as="points">
              <mxPoint x="-830" y="586" />
              <mxPoint x="-830" y="623" />
            </Array>
          </mxGeometry>
        </mxCell>
        <mxCell id="VsHdTwIQCPGBIgWfEWJq-50" style="edgeStyle=orthogonalEdgeStyle;rounded=0;orthogonalLoop=1;jettySize=auto;html=1;entryX=0.471;entryY=1.019;entryDx=0;entryDy=0;endArrow=none;endFill=0;exitX=0.5;exitY=0;exitDx=0;exitDy=0;entryPerimeter=0;" edge="1" parent="1" source="VsHdTwIQCPGBIgWfEWJq-51" target="VsHdTwIQCPGBIgWfEWJq-5">
          <mxGeometry relative="1" as="geometry">
            <Array as="points">
              <mxPoint x="-1469" y="890" />
            </Array>
          </mxGeometry>
        </mxCell>
        <mxCell id="VsHdTwIQCPGBIgWfEWJq-51" value="카메라 사진 업로드" style="swimlane;fontStyle=1;align=center;verticalAlign=top;childLayout=stackLayout;horizontal=1;startSize=26;horizontalStack=0;resizeParent=1;resizeParentMax=0;resizeLast=0;collapsible=1;marginBottom=0;" vertex="1" parent="1">
          <mxGeometry x="-1570" y="880" width="210" height="134" as="geometry" />
        </mxCell>
        <mxCell id="VsHdTwIQCPGBIgWfEWJq-52" value="" style="line;strokeWidth=1;fillColor=none;align=left;verticalAlign=middle;spacingTop=-1;spacingLeft=3;spacingRight=3;rotatable=0;labelPosition=right;points=[];portConstraint=eastwest;strokeColor=inherit;" vertex="1" parent="VsHdTwIQCPGBIgWfEWJq-51">
          <mxGeometry y="26" width="210" height="8" as="geometry" />
        </mxCell>
        <mxCell id="VsHdTwIQCPGBIgWfEWJq-53" value="+ save_photo(String path,&#xa;                             uri uri)&#xa;+ check_time_camera(datetime time):&#xa;                            boolean check&#xa;" style="text;strokeColor=none;fillColor=none;align=left;verticalAlign=top;spacingLeft=4;spacingRight=4;overflow=hidden;rotatable=0;points=[[0,0.5],[1,0.5]];portConstraint=eastwest;" vertex="1" parent="VsHdTwIQCPGBIgWfEWJq-51">
          <mxGeometry y="34" width="210" height="100" as="geometry" />
        </mxCell>
        <mxCell id="VsHdTwIQCPGBIgWfEWJq-54" style="edgeStyle=orthogonalEdgeStyle;rounded=0;orthogonalLoop=1;jettySize=auto;html=1;entryX=1;entryY=0.5;entryDx=0;entryDy=0;endArrow=none;endFill=0;exitX=0;exitY=0.5;exitDx=0;exitDy=0;" edge="1" parent="1" source="VsHdTwIQCPGBIgWfEWJq-46" target="VsHdTwIQCPGBIgWfEWJq-31">
          <mxGeometry relative="1" as="geometry">
            <Array as="points">
              <mxPoint x="-1160" y="587" />
              <mxPoint x="-1160" y="497" />
            </Array>
          </mxGeometry>
        </mxCell>
        <mxCell id="VsHdTwIQCPGBIgWfEWJq-61" value="장치 제어 패키지" style="text;html=1;align=center;verticalAlign=middle;resizable=0;points=[];autosize=1;strokeColor=none;fillColor=none;" vertex="1" parent="1">
          <mxGeometry x="-1130" y="166" width="110" height="30" as="geometry" />
        </mxCell>
        <mxCell id="VsHdTwIQCPGBIgWfEWJq-64" value="센서 패키지" style="text;html=1;align=center;verticalAlign=middle;resizable=0;points=[];autosize=1;strokeColor=none;fillColor=none;" vertex="1" parent="1">
          <mxGeometry x="-1130" y="488" width="90" height="30" as="geometry" />
        </mxCell>
        <mxCell id="VsHdTwIQCPGBIgWfEWJq-65" value="User Interface 패키지" style="text;html=1;align=center;verticalAlign=middle;resizable=0;points=[];autosize=1;strokeColor=none;fillColor=none;" vertex="1" parent="1">
          <mxGeometry x="-1700" y="166" width="140" height="30" as="geometry" />
        </mxCell>
        <mxCell id="VsHdTwIQCPGBIgWfEWJq-68" value="촬영 패키지" style="text;html=1;align=center;verticalAlign=middle;resizable=0;points=[];autosize=1;strokeColor=none;fillColor=none;" vertex="1" parent="1">
          <mxGeometry x="-1640" y="820" width="90" height="30" as="geometry" />
        </mxCell>
      </root>
    </mxGraphModel>
  </diagram>
</mxfile>
